<svg xmlns="http://www.w3.org/2000/svg" width="31" height="31" viewBox="0 0 18220 19240">
	<path fill="rgb(255,60,0)" d="M 12675 19070 c -33 -28 -82 -67 -110 -89 -27 -21 -59 -47 -70 -57 -11 -11 -32 -27 -47 -37 -15 -9 -42 -30 -60 -46 -18 -16 -105 -86 -193 -156 -88 -69 -231 -183 -318 -253 -87 -70 -184 -147 -215 -171 -31 -24 -81 -65 -111 -90 -30 -25 -78 -64 -107 -86 -28 -22 -82 -65 -120 -96 -38 -30 -123 -98 -189 -149 -66 -52 -149 -119 -185 -150 -36 -31 -82 -67 -102 -81 -20 -13 -70 -52 -110 -86 -40 -34 -134 -110 -208 -168 -179 -141 -218 -172 -398 -317 -151 -122 -210 -168 -287 -228 -22 -18 -56 -45 -75 -61 -19 -16 -66 -53 -105 -84 -38 -30 -95 -75 -125 -100 -30 -25 -140 -113 -245 -196 -104 -83 -228 -182 -275 -220 -47 -38 -159 -127 -250 -198 -91 -72 -176 -140 -190 -152 -14 -11 -61 -49 -104 -83 -44 -33 -100 -79 -125 -102 -25 -22 -70 -58 -100 -79 -30 -21 -64 -48 -76 -59 -12 -12 -56 -48 -99 -81 -69 -54 -154 -122 -340 -272 -100 -81 -233 -186 -282 -223 -26 -19 -57 -44 -68 -55 -12 -12 -61 -52 -111 -90 -49 -38 -115 -90 -145 -116 -30 -25 -73 -59 -96 -75 -36 -26 -89 -68 -279 -224 -116 -95 -213 -173 -375 -300 -95 -74 -202 -160 -239 -190 -36 -31 -88 -72 -116 -92 -27 -20 -63 -50 -79 -67 -17 -17 -34 -31 -39 -31 -8 0 -109 -81 -132 -106 -10 -11 -115 -93 -165 -129 -15 -11 -65 -50 -111 -87 -46 -37 -114 -91 -152 -120 -37 -29 -103 -82 -146 -118 -43 -36 -110 -90 -150 -120 -39 -30 -71 -57 -71 -61 0 -3 -18 -18 -40 -33 -22 -15 -105 -78 -183 -141 -78 -63 -164 -133 -192 -155 -27 -22 -88 -70 -134 -107 -46 -38 -95 -77 -110 -88 -15 -11 -105 -83 -200 -160 -178 -144 -266 -214 -439 -347 -55 -43 -103 -82 -107 -88 -3 -6 -48 -42 -98 -80 -51 -39 -119 -93 -152 -120 -33 -28 -100 -82 -150 -121 -49 -39 -112 -88 -140 -110 -27 -23 -69 -55 -91 -72 -23 -18 -119 -95 -215 -172 -306 -248 -396 -320 -512 -407 -41 -31 -78 -61 -81 -67 -4 -5 -48 -42 -99 -81 -51 -39 -130 -102 -177 -140 -47 -38 -96 -78 -110 -87 -14 -10 -70 -55 -125 -101 -55 -46 -132 -108 -170 -137 -39 -29 -77 -61 -85 -70 -8 -10 -46 -39 -85 -65 -38 -26 -98 -72 -132 -101 -34 -30 -96 -81 -138 -114 -42 -33 -92 -73 -111 -89 -19 -16 -62 -50 -94 -75 -76 -59 -258 -205 -376 -301 -50 -41 -117 -94 -148 -118 -31 -24 -56 -51 -56 -61 0 -17 40 -50 309 -258 219 -170 843 -646 1096 -836 55 -42 115 -88 133 -104 19 -15 70 -54 115 -86 45 -32 87 -64 92 -70 6 -7 46 -39 89 -72 43 -33 84 -64 90 -70 6 -6 36 -29 66 -50 30 -21 82 -60 115 -87 33 -27 107 -83 164 -126 57 -42 150 -112 205 -155 56 -42 138 -105 184 -140 46 -34 120 -92 165 -128 45 -36 98 -77 119 -90 20 -13 69 -51 110 -84 40 -33 131 -103 202 -155 70 -52 144 -108 164 -125 19 -16 54 -43 78 -60 23 -16 107 -80 185 -142 178 -139 209 -163 281 -216 32 -23 102 -77 157 -120 55 -42 103 -77 107 -77 4 0 23 -15 44 -33 20 -17 61 -50 90 -72 29 -22 69 -53 90 -70 101 -80 235 -183 274 -210 24 -16 67 -50 97 -75 30 -25 72 -58 94 -72 22 -15 72 -52 110 -83 39 -30 113 -87 165 -125 52 -39 127 -96 166 -128 72 -57 200 -154 296 -225 29 -21 55 -41 58 -45 6 -9 241 -188 366 -280 102 -74 170 -126 224 -172 30 -25 89 -70 130 -100 41 -30 103 -77 137 -105 33 -27 100 -79 148 -115 48 -36 132 -99 186 -140 53 -41 148 -113 209 -160 140 -106 228 -174 259 -200 13 -11 31 -25 41 -30 10 -5 59 -42 109 -82 89 -72 136 -108 231 -178 45 -33 159 -120 370 -283 52 -40 136 -103 185 -140 50 -37 104 -79 120 -92 44 -37 202 -158 326 -250 59 -44 133 -100 164 -125 58 -47 70 -55 201 -155 44 -32 111 -84 149 -115 39 -31 80 -62 92 -70 11 -8 85 -63 162 -123 77 -59 145 -107 149 -107 5 0 19 -12 33 -26 13 -15 58 -51 99 -82 41 -31 101 -76 132 -101 31 -25 87 -68 123 -96 37 -27 104 -78 148 -112 45 -35 89 -66 97 -69 8 -4 26 -17 40 -30 27 -24 78 -59 401 -275 112 -75 222 -146 244 -158 22 -12 83 -49 135 -82 52 -33 111 -67 130 -77 19 -9 49 -27 66 -39 80 -57 436 -224 579 -271 314 -103 500 -133 830 -133 339 0 514 25 860 123 214 60 517 213 660 333 28 23 66 52 85 66 57 39 261 256 338 360 79 108 179 284 218 386 126 331 157 478 169 784 3 74 8 153 10 177 3 24 0 53 -7 65 -12 24 -48 56 -63 57 -5 0 -23 13 -40 29 -16 15 -103 83 -192 150 -89 67 -178 137 -199 156 -21 19 -42 35 -47 35 -5 0 -48 30 -95 68 -47 37 -119 93 -161 124 -42 32 -114 87 -161 123 -47 35 -119 91 -161 122 -42 32 -114 87 -160 123 -46 36 -102 79 -125 95 -23 17 -68 50 -99 75 -32 25 -80 61 -106 80 -125 92 -231 174 -345 265 -69 55 -145 114 -169 130 -23 17 -69 50 -101 75 -31 25 -73 57 -93 71 -37 26 -72 53 -315 239 -76 58 -145 110 -153 115 -9 6 -28 20 -42 32 -33 27 -127 99 -210 161 -35 26 -100 76 -145 112 -44 36 -97 76 -116 90 -19 13 -53 39 -74 57 -22 18 -45 33 -52 33 -7 0 -19 8 -26 18 -11 15 -77 68 -199 158 -14 10 -68 51 -120 91 -52 39 -141 108 -199 152 -58 44 -154 118 -213 163 -59 46 -150 115 -202 153 -52 39 -140 106 -197 150 -181 139 -259 199 -294 225 -18 14 -104 79 -190 145 -86 66 -182 139 -213 162 -31 23 -94 71 -141 108 -118 92 -210 162 -240 182 -14 10 -56 42 -95 73 -38 31 -95 74 -125 95 -30 22 -71 52 -90 67 -51 41 -145 114 -249 193 -51 39 -127 97 -169 130 -149 116 -194 150 -237 180 -24 17 -76 56 -117 87 -40 32 -109 85 -153 118 -44 34 -140 107 -214 163 -74 56 -146 111 -161 122 -15 11 -52 39 -81 62 -30 23 -124 95 -210 160 -86 65 -212 160 -280 212 -68 52 -149 115 -180 140 -31 25 -104 82 -163 126 -59 44 -143 107 -186 140 -44 33 -121 92 -172 131 -51 39 -105 79 -120 88 -16 10 -28 24 -28 31 0 7 34 39 76 71 42 33 90 71 107 85 18 14 55 41 82 60 28 19 81 59 119 89 38 30 113 87 166 125 119 85 148 107 359 264 91 68 184 135 205 148 22 14 51 37 65 50 14 14 44 37 66 52 36 23 162 116 334 245 141 107 409 303 564 415 34 25 76 57 92 72 17 15 68 53 115 84 47 32 105 74 128 94 24 20 51 41 60 46 10 6 61 44 116 85 54 41 133 100 176 130 42 30 90 65 106 78 16 13 81 61 144 107 63 46 160 118 215 159 179 135 349 260 393 290 24 16 63 47 87 68 24 21 46 38 49 38 9 0 160 109 227 165 31 25 81 63 112 83 30 20 97 69 149 107 51 39 103 77 114 85 12 8 55 40 95 71 41 30 86 64 100 75 14 10 91 67 170 126 79 59 198 147 264 196 66 49 155 115 199 148 96 73 101 76 261 193 222 164 415 307 543 404 68 50 144 105 170 121 26 15 72 50 102 76 30 26 87 69 125 95 39 26 109 78 157 114 48 36 112 84 144 106 31 22 66 50 79 63 12 12 25 22 29 22 4 0 32 20 64 45 61 48 211 161 246 185 86 59 293 218 346 265 178 157 423 426 545 600 27 39 65 90 85 115 20 25 56 77 80 115 24 39 53 86 65 105 50 80 60 98 112 194 123 229 213 451 252 626 12 52 29 122 37 155 42 162 50 534 19 803 -12 102 -75 349 -111 441 -167 419 -489 744 -964 972 -201 97 -367 153 -620 210 -25 6 -72 17 -105 24 -156 37 -519 75 -705 75 -75 -1 -75 -1 -135 -50 z "/>
	<path fill="rgb(255,255,255)" d="M 11875 11303 c -145 -32 -326 -86 -645 -192 -113 -38 -270 -90 -350 -116 -80 -25 -158 -53 -175 -60 -72 -32 -108 -45 -123 -45 -9 0 -34 -9 -56 -19 -23 -11 -70 -29 -106 -41 -65 -23 -111 -42 -205 -86 -85 -39 -259 -115 -278 -121 -9 -3 -17 -10 -17 -15 0 -5 -4 -6 -10 -3 -5 3 -10 2 -10 -3 0 -5 -46 -33 -103 -61 -56 -28 -114 -62 -129 -76 -15 -14 -31 -25 -36 -25 -12 0 -112 -108 -112 -121 0 -5 -7 -23 -15 -40 -25 -48 -11 -87 62 -167 36 -40 89 -88 117 -106 28 -18 78 -58 111 -88 71 -63 140 -118 150 -118 10 0 77 -54 165 -132 41 -38 80 -68 86 -68 6 0 23 -13 37 -30 15 -16 33 -30 41 -30 7 0 42 -26 77 -58 35 -32 89 -76 119 -97 30 -21 87 -66 126 -99 112 -96 148 -123 170 -130 11 -3 42 -29 68 -56 26 -28 53 -50 60 -50 13 0 139 -98 144 -112 2 -5 29 -26 60 -47 32 -21 66 -49 77 -61 11 -13 45 -41 75 -63 30 -22 60 -45 65 -51 6 -6 33 -26 61 -44 28 -18 60 -42 70 -53 10 -12 42 -36 69 -54 28 -17 75 -54 105 -82 30 -28 69 -57 85 -66 17 -8 57 -40 90 -71 33 -31 63 -56 67 -56 5 0 8 -4 8 -10 0 -5 15 -16 33 -24 17 -7 51 -32 74 -55 23 -22 46 -41 51 -41 5 0 17 -10 28 -21 10 -12 35 -32 54 -45 19 -13 51 -35 70 -48 19 -13 54 -42 78 -65 23 -22 46 -41 51 -41 5 0 40 -29 79 -65 38 -36 75 -65 81 -65 6 0 11 -4 11 -10 0 -5 6 -10 13 -10 7 0 28 -16 47 -35 19 -19 38 -35 42 -35 10 0 198 -151 217 -174 8 -9 18 -16 23 -16 14 0 129 -90 135 -106 3 -8 13 -14 23 -14 9 0 40 -22 69 -50 29 -27 62 -55 74 -61 27 -15 90 -64 187 -149 41 -36 83 -69 92 -75 9 -5 59 -45 111 -87 52 -43 99 -78 104 -78 5 0 25 -16 44 -36 18 -20 68 -59 109 -87 41 -28 95 -69 120 -92 25 -22 57 -47 72 -54 15 -8 55 -40 90 -73 35 -32 77 -65 93 -73 17 -8 59 -42 95 -76 36 -33 76 -68 90 -77 14 -9 61 -46 105 -81 44 -35 103 -79 132 -97 28 -19 78 -58 110 -87 32 -29 65 -56 73 -59 20 -9 235 -181 285 -229 23 -21 45 -39 51 -39 5 0 24 -12 41 -27 17 -16 62 -50 99 -78 37 -27 102 -79 144 -115 73 -63 100 -84 220 -171 60 -44 66 -44 175 -14 28 8 79 21 115 30 36 9 160 47 275 85 116 37 230 73 255 79 25 7 54 16 65 21 11 5 67 25 125 45 234 80 358 124 425 150 138 53 201 77 240 92 22 9 65 27 95 41 30 14 73 34 95 43 70 31 249 118 270 131 150 96 219 145 265 192 52 54 54 58 58 119 3 49 1 66 -12 76 -9 7 -16 18 -16 23 0 17 -170 195 -213 224 -23 16 -60 44 -83 64 -102 88 -253 199 -296 218 -27 12 -73 47 -110 85 -62 64 -106 101 -379 318 -203 161 -269 209 -285 209 -7 0 -14 4 -14 9 0 5 -10 13 -22 17 -13 4 -57 39 -98 78 -80 77 -159 144 -253 216 -114 88 -172 129 -180 129 -5 1 -32 21 -60 45 -29 24 -71 59 -94 77 -23 19 -85 70 -137 114 -52 44 -136 112 -186 150 -50 39 -122 95 -158 125 -37 31 -93 76 -125 100 -33 25 -79 61 -103 80 -24 19 -86 68 -138 108 -52 40 -98 77 -101 82 -3 6 -16 10 -29 10 -15 0 -54 29 -112 84 -90 84 -161 143 -357 296 -60 47 -123 96 -140 110 -18 13 -50 39 -71 57 -22 18 -46 33 -54 33 -16 0 -115 76 -157 120 -33 35 -199 172 -255 210 -19 12 -53 40 -75 60 -22 21 -67 56 -100 78 -33 22 -71 52 -85 67 -14 15 -56 50 -95 78 -38 28 -105 80 -147 114 -42 35 -94 75 -116 90 -21 16 -72 55 -112 88 -40 33 -88 71 -105 85 -163 125 -212 160 -223 160 -19 0 -53 28 -152 123 -47 45 -151 133 -230 194 -80 62 -208 162 -285 223 -139 109 -153 116 -210 103 z "/>
</svg>
